<svg xmlns="http://www.w3.org/2000/svg" xmlns:xlink="http://www.w3.org/1999/xlink" width="14" height="14" viewBox="0 0 14 14"><defs><path id="okmsa" d="M847.73 1665.9a5.32 5.32 0 0 0 2.53-3.57 7.57 7.57 0 0 0-3.32-.11c.4 1.2.64 2.42.79 3.68zm-2.73.75c.6 0 1.15-.07 1.7-.27-.11-1.34-.4-2.66-.8-3.9a7.89 7.89 0 0 0-4.05 3.18c.97.63 2.03.99 3.15.99zm3.32-5.66c.66 0 1.35.11 2.05.29 0-1.08-.35-2.12-.95-3.02a13.9 13.9 0 0 1-3.2 2.05c.12.28.23.6.37.88a9.8 9.8 0 0 1 1.73-.2zm-3.32-5.06c-.48 0-.92.07-1.39.2a21.23 21.23 0 0 1 2.14 3.19 11.9 11.9 0 0 0 2.97-1.9 5.37 5.37 0 0 0-3.72-1.49zm-2.46.6a5.51 5.51 0 0 0-2.86 3.95h.72c1.45 0 2.93-.24 4.36-.77-.6-1.1-1.34-2.17-2.22-3.19zm8.9 4.75a6.44 6.44 0 1 1-12.88 0 6.44 6.44 0 0 1 12.89 0zm-6.22-.58c-1.58.58-3.19.88-4.82.88-.24 0-.48-.04-.75-.04a5.02 5.02 0 0 0 1.41 3.37 8.7 8.7 0 0 1 4.5-3.44 5.8 5.8 0 0 1-.34-.77z"/></defs><g><g transform="translate(-838 -1654)"><use fill="#fff" xlink:href="#okmsa"/></g></g></svg>