<svg xmlns="http://www.w3.org/2000/svg" xmlns:xlink="http://www.w3.org/1999/xlink" width="16" height="10" viewBox="0 0 16 10"><defs><path id="zxwwa" d="M772.48 1662c-.2-.13-.55-.15-.94-.15h-2.12v2.57h2.07c.44 0 .75-.04 1-.17.43-.2.63-.62.63-1.21 0-.49-.2-.84-.64-1.04zm6.89-1.82c-.49 0-.84.1-1.1.4-.24.28-.4.63-.49 1.07h3.13a1.8 1.8 0 0 0-.46-1.12 1.76 1.76 0 0 0-1.08-.35zm-7.48-3.77c1.19 0 2.02.36 2.53 1.04.28.4.44.9.44 1.45 0 .6-.16 1.08-.49 1.43-.15.24-.4.4-.7.55.46.2.86.48 1.1.88.24.4.4.88.4 1.43 0 .55-.16 1.06-.44 1.54-.2.3-.42.55-.7.75-.3.24-.69.4-1.09.53-.41.06-.85.1-1.38.1h-4.36v-9.7zm7.48 2.27c.6 0 1.14.11 1.63.3.46.25.86.56 1.19 1.04.26.44.46.9.55 1.45.04.33.08.77.08 1.37h-5.08c0 .7.29 1.19.73 1.45.26.2.61.29.99.29.41 0 .75-.13 1-.33a.97.97 0 0 0 .38-.46h1.85c-.04.4-.26.83-.66 1.25-.6.68-1.52.99-2.62.99-.92 0-1.74-.26-2.46-.81-.7-.6-1.04-1.52-1.04-2.82 0-1.19.33-2.11.97-2.77a3.3 3.3 0 0 1 2.49-.95zm1.9-1.87v.99h-3.88v-.99zm-8.35 2.33c0-.46-.17-.75-.53-.9a4 4 0 0 0-1.14-.15h-1.83v2.13h2.07c.44 0 .75-.09 1.04-.24.26-.16.4-.44.4-.84z"/></defs><g><g transform="translate(-767 -1656)"><use fill="#fff" xlink:href="#zxwwa"/></g></g></svg>