<svg xmlns="http://www.w3.org/2000/svg" xmlns:xlink="http://www.w3.org/1999/xlink" width="16" height="12" viewBox="0 0 16 12"><defs><path id="5mnha" d="M720.95 1661.2c.9 0 1.5-.32 1.82-.69-.53.07-1.33 0-1.75-.18.88-.07 1.45-.48 1.7-1.03-.32.2-1.3.41-1.86.2 0-.11-.04-.23-.07-.32-.41-1.54-1.84-2.74-3.29-2.6l.4-.14c.11-.04 1.05-.2.94-.52-.12-.3-1.29.2-1.54.27.3-.11.8-.27.83-.62-.44.05-.86.25-1.2.6.14-.19.2-.3.2-.5-1.14.77-1.86 2.27-2.38 3.76-.46-.41-.83-.75-1.2-.96a36.19 36.19 0 0 0-3.98-1.73c-.04.62.28 1.4 1.31 1.94a3.1 3.1 0 0 0-.94.13c.11.7.57 1.3 1.75 1.52-.56.05-.83.18-1.08.41.25.51.87 1.09 1.93.97-1.2.53-.49 1.5.46 1.31a4.14 4.14 0 0 1-5.75.19c3.93 5.33 12.42 3.12 13.7-2z"/></defs><g><g transform="translate(-707 -1655)"><use fill="#fff" xlink:href="#5mnha"/></g></g></svg>